<?xml version="1.0" standalone="no"?>
<svg xmlns:xlink="http://www.w3.org/1999/xlink" id="wave" style="transform:rotate(0deg); transition: 0.3s" viewBox="0 0 1440 290" version="1.1" xmlns="http://www.w3.org/2000/svg"><defs><linearGradient id="sw-gradient-0" x1="0" x2="0" y1="1" y2="0"><stop stop-color="rgba(89.115, 7.578, 60.229, 1)" offset="0%"/><stop stop-color="rgba(41.898, 51.156, 132.374, 1)" offset="100%"/></linearGradient></defs><path style="transform:translate(0, 0px); opacity:1" fill="url(#sw-gradient-0)" d="M0,116L60,106.3C120,97,240,77,360,87C480,97,600,135,720,130.5C840,126,960,77,1080,82.2C1200,87,1320,145,1440,169.2C1560,193,1680,184,1800,174C1920,164,2040,155,2160,169.2C2280,184,2400,222,2520,198.2C2640,174,2760,87,2880,77.3C3000,68,3120,135,3240,149.8C3360,164,3480,126,3600,96.7C3720,68,3840,48,3960,53.2C4080,58,4200,87,4320,125.7C4440,164,4560,213,4680,207.8C4800,203,4920,145,5040,140.2C5160,135,5280,184,5400,212.7C5520,242,5640,251,5760,256.2C5880,261,6000,261,6120,251.3C6240,242,6360,222,6480,183.7C6600,145,6720,87,6840,87C6960,87,7080,145,7200,159.5C7320,174,7440,145,7560,120.8C7680,97,7800,77,7920,77.3C8040,77,8160,97,8280,91.8C8400,87,8520,58,8580,43.5L8640,29L8640,290L8580,290C8520,290,8400,290,8280,290C8160,290,8040,290,7920,290C7800,290,7680,290,7560,290C7440,290,7320,290,7200,290C7080,290,6960,290,6840,290C6720,290,6600,290,6480,290C6360,290,6240,290,6120,290C6000,290,5880,290,5760,290C5640,290,5520,290,5400,290C5280,290,5160,290,5040,290C4920,290,4800,290,4680,290C4560,290,4440,290,4320,290C4200,290,4080,290,3960,290C3840,290,3720,290,3600,290C3480,290,3360,290,3240,290C3120,290,3000,290,2880,290C2760,290,2640,290,2520,290C2400,290,2280,290,2160,290C2040,290,1920,290,1800,290C1680,290,1560,290,1440,290C1320,290,1200,290,1080,290C960,290,840,290,720,290C600,290,480,290,360,290C240,290,120,290,60,290L0,290Z"/><defs><linearGradient id="sw-gradient-1" x1="0" x2="0" y1="1" y2="0"><stop stop-color="rgba(86.838, 2.972, 28.718, 1)" offset="0%"/><stop stop-color="rgba(92.949, 93.062, 253.043, 1)" offset="100%"/></linearGradient></defs><path style="transform:translate(0, 50px); opacity:0.9" fill="url(#sw-gradient-1)" d="M0,0L60,24.2C120,48,240,97,360,140.2C480,184,600,222,720,207.8C840,193,960,126,1080,125.7C1200,126,1320,193,1440,207.8C1560,222,1680,184,1800,145C1920,106,2040,68,2160,62.8C2280,58,2400,87,2520,106.3C2640,126,2760,135,2880,154.7C3000,174,3120,203,3240,183.7C3360,164,3480,97,3600,58C3720,19,3840,10,3960,38.7C4080,68,4200,135,4320,149.8C4440,164,4560,126,4680,111.2C4800,97,4920,106,5040,106.3C5160,106,5280,97,5400,116C5520,135,5640,184,5760,183.7C5880,184,6000,135,6120,120.8C6240,106,6360,126,6480,140.2C6600,155,6720,164,6840,145C6960,126,7080,77,7200,72.5C7320,68,7440,106,7560,111.2C7680,116,7800,87,7920,87C8040,87,8160,116,8280,125.7C8400,135,8520,126,8580,120.8L8640,116L8640,290L8580,290C8520,290,8400,290,8280,290C8160,290,8040,290,7920,290C7800,290,7680,290,7560,290C7440,290,7320,290,7200,290C7080,290,6960,290,6840,290C6720,290,6600,290,6480,290C6360,290,6240,290,6120,290C6000,290,5880,290,5760,290C5640,290,5520,290,5400,290C5280,290,5160,290,5040,290C4920,290,4800,290,4680,290C4560,290,4440,290,4320,290C4200,290,4080,290,3960,290C3840,290,3720,290,3600,290C3480,290,3360,290,3240,290C3120,290,3000,290,2880,290C2760,290,2640,290,2520,290C2400,290,2280,290,2160,290C2040,290,1920,290,1800,290C1680,290,1560,290,1440,290C1320,290,1200,290,1080,290C960,290,840,290,720,290C600,290,480,290,360,290C240,290,120,290,60,290L0,290Z"/><defs><linearGradient id="sw-gradient-2" x1="0" x2="0" y1="1" y2="0"><stop stop-color="rgba(164, 9, 46, 1)" offset="0%"/><stop stop-color="rgba(86.143, 31.485, 139.204, 1)" offset="100%"/></linearGradient></defs><path style="transform:translate(0, 100px); opacity:0.8" fill="url(#sw-gradient-2)" d="M0,145L60,149.8C120,155,240,164,360,145C480,126,600,77,720,87C840,97,960,164,1080,203C1200,242,1320,251,1440,251.3C1560,251,1680,242,1800,217.5C1920,193,2040,155,2160,140.2C2280,126,2400,135,2520,154.7C2640,174,2760,203,2880,212.7C3000,222,3120,213,3240,174C3360,135,3480,68,3600,38.7C3720,10,3840,19,3960,24.2C4080,29,4200,29,4320,29C4440,29,4560,29,4680,38.7C4800,48,4920,68,5040,62.8C5160,58,5280,29,5400,58C5520,87,5640,174,5760,217.5C5880,261,6000,261,6120,222.3C6240,184,6360,106,6480,106.3C6600,106,6720,184,6840,212.7C6960,242,7080,222,7200,207.8C7320,193,7440,184,7560,188.5C7680,193,7800,213,7920,193.3C8040,174,8160,116,8280,77.3C8400,39,8520,19,8580,9.7L8640,0L8640,290L8580,290C8520,290,8400,290,8280,290C8160,290,8040,290,7920,290C7800,290,7680,290,7560,290C7440,290,7320,290,7200,290C7080,290,6960,290,6840,290C6720,290,6600,290,6480,290C6360,290,6240,290,6120,290C6000,290,5880,290,5760,290C5640,290,5520,290,5400,290C5280,290,5160,290,5040,290C4920,290,4800,290,4680,290C4560,290,4440,290,4320,290C4200,290,4080,290,3960,290C3840,290,3720,290,3600,290C3480,290,3360,290,3240,290C3120,290,3000,290,2880,290C2760,290,2640,290,2520,290C2400,290,2280,290,2160,290C2040,290,1920,290,1800,290C1680,290,1560,290,1440,290C1320,290,1200,290,1080,290C960,290,840,290,720,290C600,290,480,290,360,290C240,290,120,290,60,290L0,290Z"/></svg>